<svg width="84" height="26" viewBox="0 0 84 26" fill="none" xmlns="http://www.w3.org/2000/svg">
<mask id="mask0_2462_699" style="mask-type:luminance" maskUnits="userSpaceOnUse" x="0" y="0" width="84" height="26">
<path d="M83.8337 0H0V25.025H83.8337V0Z" fill="white"/>
</mask>
<g mask="url(#mask0_2462_699)">
<path d="M51.9942 19.5502C47.1283 23.0974 40.0755 24.9899 34.0031 24.9899C25.4887 24.9899 17.8235 21.8753 12.0245 16.6952C11.5689 16.2879 11.9772 15.7327 12.5239 16.05C18.7821 19.6512 26.5202 21.8177 34.5134 21.8177C39.9041 21.8177 45.8343 20.7146 51.2871 18.4255C52.1108 18.0795 52.7997 18.9591 51.9942 19.5502Z" fill="#FF9900"/>
<path d="M54.0284 17.2625C53.4088 16.4767 49.917 16.8912 48.3497 17.0751C47.8722 17.1327 47.7993 16.7218 48.2294 16.4262C51.0104 14.4904 55.5738 15.0491 56.106 15.698C56.6381 16.3505 55.9675 20.8745 53.3541 23.0338C52.9531 23.3655 52.5704 23.1888 52.749 22.749C53.3359 21.2999 54.6517 18.052 54.0284 17.2625Z" fill="#FF9900"/>
<path d="M48.4535 2.75892V0.877207C48.4535 0.592427 48.6723 0.401367 48.9347 0.401367H57.4528C57.7261 0.401367 57.9448 0.596027 57.9448 0.877207V2.48856C57.9412 2.75892 57.7115 3.11219 57.3032 3.67094L52.8894 9.9037C54.5296 9.864 56.2609 10.1055 57.748 10.9346C58.0833 11.1221 58.1745 11.3961 58.2 11.6664V13.6743C58.2 13.9483 57.8938 14.2691 57.5731 14.1033C54.9524 12.7443 51.4714 12.5965 48.5738 14.1177C48.2785 14.2763 47.9688 13.9591 47.9688 13.6851V11.7782C47.9688 11.4718 47.9724 10.9491 48.2822 10.484L53.396 3.23115H48.9455C48.6722 3.23115 48.4535 3.0401 48.4535 2.75892Z" fill="#221F1F"/>
<path d="M17.3903 14.5001H14.7988C14.5509 14.4821 14.3541 14.2982 14.3359 14.0639V0.909956C14.3359 0.646806 14.5582 0.437726 14.8352 0.437726H17.2518C17.5033 0.448536 17.7038 0.639596 17.722 0.877516V2.59702H17.7694C18.3999 0.935196 19.5845 0.160156 21.181 0.160156C22.8029 0.160156 23.8162 0.935196 24.5452 2.59702C25.1721 0.935196 26.5972 0.160156 28.1244 0.160156C29.2106 0.160156 30.3988 0.603546 31.1242 1.59848C31.9443 2.70516 31.7766 4.31291 31.7766 5.72239L31.7729 14.0243C31.7729 14.2874 31.5506 14.5001 31.2736 14.5001H28.6857C28.427 14.4821 28.2192 14.2766 28.2192 14.0243V7.05257C28.2192 6.49743 28.2702 5.11318 28.1463 4.58687C27.9531 3.7037 27.3736 3.45496 26.6227 3.45496C25.9958 3.45496 25.3398 3.86952 25.0737 4.5328C24.8076 5.19609 24.8331 6.30637 24.8331 7.05257V14.0243C24.8331 14.2874 24.6108 14.5001 24.3338 14.5001H21.7459C21.4835 14.4821 21.2794 14.2766 21.2794 14.0243L21.2757 7.05257C21.2757 5.58541 21.5199 3.42612 19.6793 3.42612C17.8167 3.42612 17.8896 5.53134 17.8896 7.05257V14.0243C17.8896 14.2874 17.6673 14.5001 17.3903 14.5001Z" fill="#221F1F"/>
<path d="M65.2771 0.160156C69.1224 0.160156 71.2036 3.42612 71.2036 7.57887C71.2036 11.591 68.9037 14.7741 65.2771 14.7741C61.501 14.7741 59.4453 11.5081 59.4453 7.43829C59.4453 3.34321 61.5265 0.160156 65.2771 0.160156ZM65.2989 2.84575C63.389 2.84575 63.2687 5.41959 63.2687 7.02373C63.2687 8.63148 63.2432 12.0633 65.2771 12.0633C67.2854 12.0633 67.3802 9.2948 67.3802 7.60771C67.3802 6.49743 67.3328 5.17086 66.9938 4.11825C66.7022 3.20263 66.1227 2.84575 65.2989 2.84575Z" fill="#221F1F"/>
<path d="M76.1914 14.5001H73.6108C73.352 14.4821 73.1442 14.2766 73.1442 14.0243L73.1406 0.866696C73.1625 0.625176 73.3775 0.437726 73.6399 0.437726H76.0419C76.2679 0.448536 76.4538 0.599946 76.5048 0.805416V2.81691H76.5522C77.2775 1.01811 78.2944 0.160156 80.0841 0.160156C81.2468 0.160156 82.3803 0.574716 83.1093 1.71023C83.7873 2.76284 83.7873 4.5328 83.7873 5.8053V14.0856C83.7581 14.3163 83.5431 14.5001 83.2879 14.5001H80.6891C80.4522 14.4821 80.2554 14.3091 80.2299 14.0856V6.94082C80.2299 5.5025 80.3975 3.39728 78.6079 3.39728C77.9773 3.39728 77.3978 3.81545 77.1099 4.44989C76.7454 5.25377 76.698 6.05404 76.698 6.94082V14.0243C76.6944 14.2874 76.4684 14.5001 76.1914 14.5001Z" fill="#221F1F"/>
<path d="M41.6594 8.21613V7.66099C39.7859 7.66099 37.8067 8.05752 37.8067 10.242C37.8067 11.3487 38.3863 12.0985 39.3813 12.0985C40.1103 12.0985 40.7627 11.6551 41.1746 10.9342C41.6849 10.0474 41.6594 9.21469 41.6594 8.21613ZM44.2727 14.4633C44.1014 14.6147 43.8536 14.6255 43.6604 14.5246C42.8002 13.818 42.6471 13.49 42.1733 12.8159C40.7518 14.2506 39.7458 14.6796 37.9015 14.6796C35.7219 14.6796 34.0234 13.3494 34.0234 10.6854C34.0234 8.60545 35.1642 7.18876 36.7862 6.49663C38.1931 5.88381 40.1577 5.77567 41.6594 5.60625V5.2746C41.6594 4.66539 41.7068 3.94442 41.3459 3.41812C41.0288 2.94589 40.4238 2.75123 39.8916 2.75123C38.9039 2.75123 38.0218 3.2523 37.8067 4.29049C37.763 4.5212 37.5917 4.7483 37.3584 4.75911L34.8435 4.49235C34.6321 4.4455 34.3988 4.27607 34.4571 3.95524C35.0366 0.941613 37.7885 0.0332031 40.2525 0.0332031C41.5136 0.0332031 43.1611 0.364843 44.1561 1.3093C45.4172 2.47366 45.297 4.02733 45.297 5.71799V9.71209C45.297 10.9125 45.7999 11.4388 46.2738 12.0877C46.4414 12.3184 46.4779 12.596 46.2665 12.769C45.738 13.2052 44.7976 14.0163 44.28 14.4705L44.2727 14.4633Z" fill="#221F1F"/>
<path d="M7.69069 8.21613V7.66099C5.81723 7.66099 3.83806 8.05752 3.83806 10.242C3.83806 11.3487 4.4176 12.0985 5.41265 12.0985C6.14162 12.0985 6.79405 11.6551 7.20593 10.9342C7.7162 10.0474 7.69069 9.21469 7.69069 8.21613ZM10.3041 14.4633C10.1328 14.6147 9.88486 14.6255 9.69176 14.5246C8.83154 13.818 8.67845 13.49 8.20462 12.8159C6.78312 14.2506 5.77714 14.6796 3.93283 14.6796C1.7532 14.6796 0.0546875 13.3494 0.0546875 10.6854C0.0546875 8.60545 1.19553 7.18876 2.8175 6.49663C4.22442 5.88381 6.18901 5.77567 7.69069 5.60625V5.2746C7.69069 4.66539 7.73808 3.94442 7.37723 3.41812C7.06013 2.94589 6.45508 2.75123 5.92293 2.75123C4.93517 2.75123 4.05311 3.2523 3.83806 4.29049C3.79433 4.5212 3.62302 4.7483 3.38975 4.75911L0.874787 4.49235C0.66338 4.4455 0.430109 4.27607 0.488427 3.95524C1.06796 0.941613 3.81984 0.0332031 6.28377 0.0332031C7.5449 0.0332031 9.19238 0.364843 10.1875 1.3093C11.4486 2.47366 11.3283 4.02733 11.3283 5.71799V9.71209C11.3283 10.9125 11.8313 11.4388 12.3051 12.0877C12.4728 12.3184 12.5092 12.596 12.2978 12.769C11.7693 13.2052 10.829 14.0163 10.3114 14.4705L10.3041 14.4633Z" fill="#221F1F"/>
</g>
</svg>
