<svg width="82" height="23" viewBox="0 0 82 23" fill="none" xmlns="http://www.w3.org/2000/svg">
<path d="M0.015625 1.0957C1.49836 1.41278 2.39926 2.36404 2.23034 3.48317C2.17404 3.85622 1.85497 4.34118 1.51713 4.47174C1.14176 4.62096 0.634995 4.47174 0.184545 4.39713C0.109475 4.39713 0.0343952 4.136 0.0343952 3.98678C0.0343952 3.03552 0.0343952 2.08426 0.0343952 1.0957H0.015625Z" fill="#BFA970"/>
<path d="M22.5675 22.5255H11.3438C14.9286 19.5411 16.8618 15.8667 16.8618 11.3342C16.8618 6.80169 15.0224 3.07126 11.3625 0.0869141H22.5675V22.5068V22.5255Z" fill="#BFA970"/>
<path d="M48.9407 6.72706C49.5788 6.72706 50.1794 6.68976 50.78 6.74566C50.9865 6.76436 51.2305 7.02546 51.3618 7.23066C52.3003 8.74146 53.2387 10.271 54.2147 11.8751C54.8528 10.8305 55.4347 9.86056 56.0165 8.89066C56.2417 8.51766 56.4669 8.12596 56.6922 7.75286C57.274 6.76436 58.1186 6.40996 59.2259 6.72706C59.3761 6.76436 59.5262 7.06276 59.5262 7.23066C59.545 10.0658 59.5262 12.8823 59.5262 15.7734H57.0863V11.4647C57.03 11.4461 56.9925 11.4274 56.9362 11.4088C56.6922 11.8005 56.4482 12.1921 56.2229 12.5838C55.8476 13.1994 55.4722 13.8149 55.0968 14.4304C54.6088 15.2511 53.7642 15.2698 53.2575 14.4491C52.6757 13.5164 52.1126 12.5838 51.4181 11.4647V15.792H48.9219V6.68976L48.9407 6.72706Z" fill="black"/>
<path d="M81.9638 15.8475H79.5051V11.5575C79.4488 11.5575 79.3925 11.5388 79.3362 11.5202C78.7356 12.5274 78.135 13.5533 77.5156 14.5418C77.0839 15.2506 76.183 15.2506 75.7326 14.5418C75.1132 13.5533 74.5126 12.5833 73.7994 11.4269V15.8288H71.3219C71.3219 15.6423 71.2656 15.4558 71.2656 15.2879C71.2656 12.6953 71.2656 10.084 71.2656 7.49131C71.2656 6.93171 71.4158 6.76391 72.0164 6.70791C73.1049 6.59601 73.7619 6.95042 74.2686 7.93902C74.9631 9.28192 75.8264 10.5129 76.671 11.8932C77.403 10.6808 78.0787 9.54302 78.7731 8.40532C78.8482 8.27472 78.9608 8.12551 79.0171 7.97631C79.4112 6.68931 80.406 6.57732 81.5134 6.74522C81.6823 6.76392 81.945 6.98771 81.945 7.11831C81.9638 10.0093 81.9638 12.9004 81.9638 15.8288V15.8475Z" fill="black"/>
<path d="M7.3513 22.5259C8.077 20.5612 8.2897 18.9757 7.9894 17.7696C8.1584 17.7509 8.346 17.7136 8.515 17.7136C9.566 17.6763 10.4106 17.266 11.0863 16.4826C11.2177 16.3333 11.2177 16.0536 11.2927 15.8297C11.0675 15.7924 10.8235 15.6992 10.6171 15.7551C9.8475 15.923 9.0968 16.2401 8.3085 16.2774C6.9196 16.3707 5.4181 14.8039 5.512 13.4423C5.5495 12.6962 5.5495 11.9501 6.1501 11.3532C6.4504 11.4651 6.7507 11.577 7.051 11.6703C7.7642 11.9314 8.4211 11.9874 9.0405 11.3719C9.4534 10.9802 9.9977 10.719 10.5045 10.4206C10.8611 10.2154 11.837 10.4579 12.1373 10.831C12.8505 11.7076 13.2447 12.7335 13.2822 13.8526C13.3198 14.9531 13.2822 16.0909 13.1133 17.1727C12.7379 19.355 11.3115 20.7912 9.4346 21.8357C8.7965 22.1901 8.1959 22.6751 7.3701 22.4886L7.3513 22.5259ZM10.8986 14.3935C10.1103 14.8039 9.4534 15.5127 8.346 15.1396C8.4399 15.4754 8.6276 15.9976 8.759 15.9976C9.3408 15.9417 9.9414 15.7551 10.4857 15.5313C10.9924 15.3261 11.0863 14.8971 10.8986 14.3935ZM9.0593 13.0692C9.3971 11.577 10.5232 11.0734 11.105 11.7636C11.1426 11.4651 11.1989 11.0361 11.0487 10.9242C10.8611 10.7937 10.4481 10.8496 10.1854 10.9615C9.8288 11.1107 9.5097 11.3719 9.2094 11.6143C8.759 11.9687 8.7965 12.4164 9.078 13.0506L9.0593 13.0692Z" fill="#BFA970"/>
<path d="M69.9437 8.29472C69.3618 8.83562 68.8363 9.32052 68.2732 9.82412C67.3536 8.89152 66.3213 8.55582 65.1201 8.94752C64.0127 9.32052 63.3371 10.4956 63.506 11.6521C63.7124 12.9577 64.5758 13.7784 65.8333 13.8344C65.9271 13.8344 66.021 13.8344 66.1148 13.8344C67.2785 13.8157 67.3723 13.7038 67.3723 12.566C67.3723 11.0552 67.3723 11.0925 68.8926 11.0552C69.5683 11.0365 69.7935 11.2417 69.756 11.9132C69.6997 12.7712 69.756 13.6292 69.7372 14.4872C69.7372 14.6924 69.6621 14.9721 69.512 15.0841C67.3911 16.4643 63.75 16.6508 61.8543 14.3007C60.0338 12.0438 60.5593 7.75382 64.2004 6.87712C66.0398 6.42942 68.0855 6.31752 69.6621 7.90302C69.756 7.99622 69.831 8.10812 69.9812 8.29472H69.9437Z" fill="black"/>
<path d="M13.3394 18.4033C13.527 16.9297 13.8086 15.5495 13.8837 14.1506C13.9587 12.6584 13.4707 11.2968 12.5135 10.0844C12.2695 9.7673 12.2508 9.2637 12.1006 8.872C11.988 8.5736 11.8003 8.2938 11.5751 7.8648C11.3499 8.2192 11.2373 8.3684 11.1434 8.5363C10.937 8.9093 10.693 8.9839 10.2801 8.7787C9.79206 8.5363 9.26646 8.387 8.64716 8.1632C9.26646 8.1632 9.79206 8.2378 10.2801 8.1446C10.5804 8.0886 11.012 7.8088 11.0683 7.5664C11.1622 7.212 10.8243 6.9508 10.3927 6.9695C10.2988 6.9695 10.1862 6.8949 10.0924 6.8389C9.75446 6.5778 9.43546 6.3167 9.04126 5.9996C9.00376 4.69392 7.52096 4.52605 6.78906 3.66805C7.61486 2.28779 9.45416 1.78418 11.0871 2.53027C12.9452 3.38827 13.9963 4.95505 14.747 6.7643C15.6104 8.872 15.5353 11.073 15.3664 13.2739C15.2538 14.6915 14.8972 16.0717 14.1464 17.3028C13.9212 17.6945 13.6209 18.0489 13.3394 18.4219V18.4033Z" fill="#BFA970"/>
<path d="M24.157 15.8671C24.157 14.7293 24.157 13.6661 24.157 12.6029C24.157 10.8683 24.157 9.11502 24.157 7.38032C24.157 7.08192 24.1194 6.72752 24.5699 6.74612C25.9963 6.74612 27.4227 6.69022 28.8492 6.78342C29.9002 6.85812 30.9325 7.23112 31.2703 8.36892C31.5706 9.43212 31.3829 10.4579 30.4445 11.0175C30.895 11.5584 31.4956 12.0061 31.7396 12.5843C32.3965 14.2257 31.2891 15.7551 29.3372 15.8484C27.6667 15.9417 25.9775 15.8484 24.1757 15.8484L24.157 15.8671ZM25.3206 11.6703V15.121C26.7283 15.0464 28.0984 15.0464 29.4498 14.9158C30.3319 14.8225 30.7823 14.2443 30.8011 13.4236C30.8011 12.5656 30.4445 11.9874 29.5248 11.8941C28.1547 11.7449 26.7471 11.7449 25.3019 11.689L25.3206 11.6703ZM25.3019 10.7564C26.5406 10.7564 27.7418 10.8123 28.9242 10.7564C29.7688 10.7191 30.3882 9.97302 30.3694 9.24552C30.3694 8.51812 29.7688 7.80932 28.9618 7.75342C27.7606 7.67882 26.5406 7.75342 25.3019 7.75342V10.7937V10.7564Z" fill="black"/>
<path d="M33.272 15.8485C33.272 15.6246 33.2344 15.4195 33.2344 15.2143C33.2344 12.6403 33.2344 10.0663 33.2344 7.49234C33.2344 6.93274 33.3846 6.72754 33.9852 6.72754C35.8245 6.76484 37.6639 6.72754 39.5595 6.72754V7.66024H34.3606V10.7378C35.1864 10.7378 36.0498 10.7378 36.8943 10.7378C37.4386 10.7378 37.9642 10.7378 38.5085 10.7378C38.8838 10.7378 39.1466 10.8683 39.034 11.26C38.9777 11.4465 38.6961 11.689 38.5085 11.689C37.2134 11.7263 35.9371 11.7077 34.6421 11.7077C34.5483 11.7077 34.4732 11.7263 34.3418 11.745V14.9345C35.9559 14.9345 37.5513 14.9345 39.1278 14.9345C39.8973 14.9345 39.9349 14.9905 39.7472 15.8298H33.272V15.8485Z" fill="black"/>
<path d="M5.66679 10.8683C4.0339 13.405 4.07143 14.3935 5.89199 16.8556C6.36119 17.4898 6.83039 18.124 7.20579 18.8141C7.86269 20.0451 7.61869 21.3508 6.60519 22.302C6.45509 22.4513 6.21109 22.5445 6.00459 22.5445C5.04741 22.5632 4.0902 22.5445 2.94531 22.5445C4.35297 20.4741 3.94005 18.3664 3.95882 16.296C3.95882 15.3634 4.01513 14.4495 4.12774 13.5355C4.25912 12.435 4.95356 11.6144 5.68559 10.8496L5.66679 10.8683Z" fill="#BFA970"/>
<path d="M0.170442 13.5361C1.01503 14.7485 1.9347 15.9236 2.68545 17.192C3.54881 18.6095 3.53004 20.083 2.68545 21.5566C2.27254 22.2654 1.80332 22.7317 0.902422 22.5638C0.639662 22.5078 0.358133 22.5638 0.0390625 22.5638V13.6107C0.0766025 13.5921 0.114132 13.5548 0.151672 13.5361H0.170442Z" fill="#BFA970"/>
<path d="M44.823 7.69642V15.8287H43.7532V7.69642C42.8335 7.69642 42.0077 7.69642 41.1631 7.69642C40.8253 7.69642 40.5625 7.69642 40.5625 7.24872C40.5625 6.76382 40.8253 6.74512 41.2006 6.74512C43.284 6.74512 45.3673 6.74512 47.4506 6.74512C47.8072 6.74512 48.0325 6.80112 48.0325 7.23012C48.0325 7.65912 47.826 7.73372 47.4694 7.71502C46.6248 7.71502 45.7802 7.71502 44.823 7.71502V7.69642Z" fill="black"/>
<path d="M0.0938501 0.0499101C1.70796 0.0499101 3.32207 0.0499101 4.93618 0.0499101C5.16141 0.0499101 5.46169 0.23643 5.57429 0.4416C6.11859 1.2996 6.09989 2.25086 5.78079 3.18347C5.72449 3.33269 5.51799 3.53786 5.36789 3.55652C4.72973 3.66843 4.07282 3.70573 3.35961 3.78034C3.32207 2.79177 3.003 1.93378 2.21471 1.39286C1.53904 0.92656 0.75075 0.59082 0 0.19912C0.03754 0.14317 0.0563101 0.08721 0.0938501 0.03125V0.0499101Z" fill="#BFA970"/>
<path d="M2.32837 14.3386C1.33362 12.8092 1.05209 11.1678 1.1084 9.52637C2.3096 9.69417 3.49203 9.86207 4.56185 9.99267C3.09789 10.888 2.06561 12.2496 2.32837 14.32V14.3386Z" fill="#BFA970"/>
<path d="M6.57031 0.105718C7.95921 -0.267332 9.01021 0.404148 9.94871 1.22485C8.99151 1.50463 8.01551 1.78441 7.02071 2.08285C6.88941 1.48598 6.72041 0.795848 6.57031 0.105718Z" fill="#BFA970"/>
<path d="M1.10156 7.88312C2.47168 6.72662 3.8418 5.79402 5.287 7.09972C4.59255 7.32352 3.74796 7.65932 2.86583 7.84582C2.30276 7.97632 1.70216 7.86442 1.10156 7.86442V7.88312Z" fill="#BFA970"/>
</svg>
