<svg width="99" height="20" viewBox="0 0 99 20" fill="none" xmlns="http://www.w3.org/2000/svg">
<g clip-path="url(#clip0_2462_811)">
<path d="M13.3253 14.4814H0L3.08916 -9.1276e-05H16.1125L15.5551 2.92699H8.51115L7.96215 5.32385H14.2375L13.4775 8.32982H7.34109L6.59243 11.4069H14.0274" fill="#9A2A42"/>
<path d="M24.1231 3.37306C22.7315 3.39833 21.7955 3.94438 21.3862 4.99459C20.7673 6.58484 20.1196 8.98849 20.1196 10.1635C20.1196 10.5763 19.8334 12.6195 22.2556 12.6195C24.7808 12.6195 25.5388 9.8155 25.9473 7.68098C26.4034 5.29899 26.9101 3.32222 24.1231 3.37306ZM18.2446 14.6741C14.6669 13.8247 14.9506 12.1861 14.9506 10.6193C14.9506 8.45495 15.7616 4.13355 17.4844 2.41037C18.5628 1.33243 20.5113 0.94886 24.3763 0.890519C27.7209 0.839679 28.2127 1.23673 29.5997 1.69364C31.775 2.41037 31.6001 4.89224 31.6001 4.89224L31.015 8.33941H26.6061L35.5757 19.2095H29.3426L25.6434 14.5219C25.6434 14.5219 21.2345 15.3837 18.2446 14.6741Z" fill="#9A2A42"/>
<path d="M37.0366 14.8765L32.0703 9.09924L33.7096 1.63328H39.0634C39.0634 1.63328 37.2897 9.91015 37.0625 10.7976C36.761 11.976 38.0096 12.4948 38.9116 12.4948C40.2256 12.4948 40.8406 11.8844 40.9729 11.6082C41.4959 10.5184 43.4217 1.63328 43.4217 1.63328L48.7421 1.64995C48.7421 1.64995 47.1476 11.8741 45.6516 13.1032C44.2327 14.2685 43.3204 14.6226 41.445 14.8765" fill="#9A2A42"/>
<path d="M53.3339 14.5059H48.0039L50.8619 1.63302H56.2662" fill="#9A2A42"/>
<path d="M60.9452 14.521L55.5078 14.48L58.3004 1.58001H69.9381L69.2338 4.20408H63.2397L62.7448 6.4236H67.8537L67.421 9.03459H62.1123" fill="#9A2A42"/>
<path d="M72.0878 8.88625H75.4283L74.8812 4.50807L72.0878 8.88625ZM81.6204 14.4736H75.968L75.7021 11.6974H70.0468L68.2222 14.4736H64.5742L73.6951 1.53517H80.0856" fill="#9A2A42"/>
<path d="M96.629 14.4736H90.0408L87.774 10.565L83.9017 14.4736H78.625L85.7201 8.05785L81.4201 1.57139H88.3076L90.4408 5.0437L93.7894 1.57139H98.995L92.0683 7.65789" fill="#9A2A42"/>
</g>
<defs>
<clipPath id="clip0_2462_811">
<rect width="99" height="19.2094" fill="white"/>
</clipPath>
</defs>
</svg>
