<svg width="45" height="30" viewBox="0 0 45 30" fill="none" xmlns="http://www.w3.org/2000/svg">
<path d="M13.7207 24.0111L13.638 24.0933C12.3388 25.4519 10.8354 26.1696 9.28672 26.1696C6.0525 26.1696 3.70611 23.6795 3.70611 20.2447C3.70611 16.8154 6.0525 14.3212 9.28672 14.3212C10.8354 14.3212 12.3388 15.0428 13.638 16.4066L13.7207 16.4877L15.8008 13.9059L15.7451 13.8369C14.0154 11.7392 11.9394 10.7193 9.38767 10.7193C6.82936 10.7193 4.48693 11.6041 2.80125 13.1974C0.965676 14.9247 0 17.3607 0 20.2447C0 23.1288 0.965676 25.5699 2.80125 27.2974C4.48693 28.8999 6.82936 29.7781 9.38767 29.7781C11.9394 29.7781 14.0154 28.7566 15.7451 26.6578L15.8008 26.5942L13.7207 24.0111ZM17.9015 29.4261H21.5754V11.0172H17.9015V29.4261ZM35.969 25.4242C34.9878 26.037 34.0764 26.3463 33.2568 26.3463C32.0689 26.3463 31.531 25.7014 31.531 24.2687V14.5003H35.276V11.0351H31.531V5.30664L27.931 7.28592V11.0351H24.8233V14.5003H27.9309V24.8909C27.9309 27.7206 29.5648 29.6575 32.0055 29.7079C33.6614 29.7411 34.6594 29.2344 35.2643 28.8629L35.3031 28.8376L36.1861 25.2875L35.969 25.4242ZM39.0101 29.4261H42.6892V11.0172H39.0101V29.4261Z" fill="#004685"/>
<path d="M44.8326 7.79014C41.4753 2.91073 35.9013 0 30.2301 0C24.5604 0 18.9849 2.91073 15.6342 7.79014L15.4609 8.04086H19.6882L19.7347 7.98922C22.6111 4.94057 26.3677 3.32996 30.2301 3.32996C34.0925 3.32996 37.8466 4.94057 40.7295 7.98922L40.776 8.04086H45.0005L44.8326 7.79014Z" fill="#EE1C25"/>
</svg>
