<svg width="99" height="23" viewBox="0 0 99 23" fill="none" xmlns="http://www.w3.org/2000/svg">
<path d="M17.376 4.5633C16.5936 4.06916 15.9504 3.39301 15.5048 2.59614C15.0593 1.79928 14.8254 0.906922 14.8245 0H10.7976L10.7908 15.686C10.7653 16.3306 10.5454 16.9536 10.1583 17.4776C9.77127 18.0016 9.23419 18.4033 8.61395 18.6328C7.99371 18.8623 7.31771 18.9095 6.67012 18.7684C6.02252 18.6273 5.43193 18.3041 4.97187 17.8392C4.51181 17.3743 4.2026 16.7882 4.08275 16.1538C3.96289 15.5194 4.03768 14.8647 4.2978 14.2713C4.55793 13.6779 4.99189 13.1719 5.54567 12.8164C6.09945 12.4609 6.74858 12.2716 7.41225 12.272C7.75119 12.273 8.08799 12.3243 8.41103 12.424V8.42842C8.08013 8.383 7.74644 8.35936 7.41225 8.35766C3.32505 8.35766 0 11.5898 0 15.5622C0 16.5082 0.191724 17.445 0.564225 18.319C0.936725 19.1931 1.4827 19.9872 2.171 20.6562C2.85929 21.3251 3.67641 21.8558 4.57571 22.2178C5.475 22.5799 6.43886 22.7662 7.41225 22.7662C8.38565 22.7662 9.34952 22.5799 10.2488 22.2178C11.1481 21.8558 11.9652 21.3251 12.6535 20.6562C13.3418 19.9872 13.8878 19.1931 14.2603 18.319C14.6328 17.445 14.8245 16.5082 14.8245 15.5622V7.60808C16.4568 8.74885 18.417 9.36153 20.4275 9.35932V5.445C19.3438 5.44585 18.2833 5.13943 17.376 4.5633Z" fill="black"/>
<path d="M24.2656 5.46387H36.9647L35.8009 8.9929H32.5021V22.0487H28.3989V8.9929L24.2685 9.00064L24.2656 5.46387Z" fill="black"/>
<path d="M57.7734 5.46387H70.7659L69.5999 8.9929H66.0166V22.0487H61.9055V8.9929L57.7751 9.00064L57.7734 5.46387Z" fill="black"/>
<path d="M37.7422 10.7393H41.814L41.8095 22.0489H37.7666L37.7422 10.7393Z" fill="black"/>
<path d="M43.4297 5.41699H47.497V13.1384L51.5273 9.29427H56.3818L51.2839 14.1036L56.9938 22.0466H52.513L48.7022 16.5381L47.497 17.6774V22.0444H43.4297V5.41699Z" fill="black"/>
<path d="M84.7812 5.41699H88.8485V13.1384L92.879 9.29427H97.7335L92.6354 14.1036L98.3455 22.0466H93.8646L90.0538 16.5381L88.8485 17.6774V22.0444H84.7812V5.41699Z" fill="black"/>
<path d="M39.7759 9.44631C40.9077 9.44631 41.8252 8.55459 41.8252 7.4546C41.8252 6.35461 40.9077 5.46289 39.7759 5.46289C38.6441 5.46289 37.7266 6.35461 37.7266 7.4546C37.7266 8.55459 38.6441 9.44631 39.7759 9.44631Z" fill="black"/>
<path d="M76.1634 8.50879C74.7856 8.50835 73.4386 8.90503 72.2928 9.64867C71.147 10.3923 70.2538 11.4495 69.7262 12.6865C69.1986 13.9235 69.0604 15.2848 69.3289 16.5982C69.5974 17.9116 70.2607 19.1182 71.2347 20.0652C72.2088 21.0122 73.45 21.6572 74.8013 21.9186C76.1526 22.18 77.5533 22.0461 78.8263 21.5337C80.0992 21.0214 81.1873 20.1537 81.9528 19.0403C82.7183 17.9269 83.1269 16.6179 83.1269 15.2788C83.1269 13.4837 82.3933 11.762 81.0874 10.4925C79.7816 9.2229 78.0104 8.50937 76.1634 8.50879ZM76.1634 18.5696C75.4935 18.5697 74.8387 18.3768 74.2817 18.0151C73.7247 17.6535 73.2906 17.1395 73.0342 16.5381C72.7778 15.9366 72.7107 15.2748 72.8414 14.6363C72.972 13.9978 73.2946 13.4113 73.7682 12.951C74.2418 12.4906 74.8453 12.1771 75.5023 12.0502C76.1592 11.9232 76.8402 11.9884 77.459 12.2376C78.0778 12.4868 78.6067 12.9087 78.9788 13.4501C79.3509 13.9914 79.5494 14.6278 79.5493 15.2788C79.5491 16.1515 79.1924 16.9885 78.5574 17.6056C77.9225 18.2227 77.0613 18.5695 76.1634 18.5696Z" fill="black"/>
</svg>
