<svg xmlns="http://www.w3.org/2000/svg" width="100" height="40" viewBox="0 0 101 40" fill="#006aff"><path fill-rule="evenodd" clip-rule="evenodd" d="M53.2495 14.3723C56.0589 14.3723 58.186 15.1289 59.6189 16.6511C61.0456 18.1658 61.7547 20.3479 61.7547 23.1887C61.7547 26.0294 61.0223 28.2276 59.5499 29.7762C58.0737 31.3289 55.9795 32.1033 53.2836 32.1033C50.4968 32.1033 48.3847 31.3401 46.9643 29.8079L46.791 29.6136C45.4909 28.0963 44.8446 25.9522 44.8446 23.1887C44.8446 17.3397 47.6669 14.3723 53.2495 14.3723ZM92.6763 14.3719C95.4029 14.3719 97.4202 15.2237 98.7034 16.9298C99.9181 18.5444 100.537 20.7649 100.568 23.5872L100.567 24.1906H88.5928C88.7325 25.6415 89.1993 26.7402 89.9904 27.4994C90.8185 28.295 92.0046 28.6951 93.5634 28.6951C94.5917 28.6951 95.5704 28.5726 96.5016 28.3266C97.4332 28.0825 98.2582 27.7667 98.9725 27.3828L99.3083 27.2023V30.9163L99.173 30.9729C97.3729 31.7272 95.3103 32.103 92.9829 32.103C90.3552 32.103 88.2801 31.3349 86.7701 29.7957C85.2621 28.2594 84.5108 26.0847 84.5108 23.2865C84.5108 20.4245 85.22 18.2211 86.6466 16.6837C88.0765 15.1417 90.0922 14.3719 92.6763 14.3719ZM80.8047 7.89648V27.9303C80.8047 28.8677 80.3988 29.6647 79.5991 30.3041C78.8227 30.9246 77.8498 31.3802 76.6832 31.6717C75.5305 31.9595 74.3419 32.1029 73.1164 32.1029C70.6323 32.1029 68.5808 31.4265 66.9692 30.0715C65.3454 28.7046 64.5421 26.3404 64.5421 22.9911C64.5421 20.306 65.2283 18.1969 66.6078 16.6692C67.9952 15.1357 70.0445 14.3718 72.7416 14.3718C73.3729 14.3718 74.0973 14.4489 74.9156 14.603C75.6074 14.7358 76.2383 14.9221 76.8098 15.1629V7.89648H80.8047ZM36.5523 14.4038C38.4209 14.4038 40.1991 14.736 41.8858 15.4002L42.0257 15.4553V19.0025L41.7127 18.8758C40.0113 18.1873 38.4618 17.8444 37.0635 17.8444C35.3253 17.8444 34.0424 18.2571 33.2029 19.0727C32.3644 19.8884 31.9389 21.2024 31.9389 23.025C31.9389 24.9384 32.3553 26.3218 33.1748 27.1794C33.9888 28.0333 35.3142 28.4654 37.1658 28.4654C38.6769 28.4654 40.2002 28.1136 41.736 27.4083L42.0588 27.26V30.8172L41.9251 30.8744C40.2628 31.585 38.483 31.9396 36.5865 31.9396C34.2427 31.9396 32.2652 31.3208 30.6621 30.0824L30.4244 29.892L30.2437 29.7359C28.7071 28.3535 27.944 26.1984 27.944 23.2866C27.944 20.1768 28.754 17.9114 30.3871 16.5033C32.0092 15.1037 34.0679 14.4038 36.5523 14.4038ZM4.13188 14.8622L4.16687 31.6131H0.103234V14.8622H4.13188ZM17.0265 14.4039C19.4626 14.4039 21.274 14.8973 22.4575 15.8969C23.6474 16.9028 24.2378 18.4545 24.2378 20.5396V31.6127H20.2087V20.9985C20.2087 18.8344 18.9637 17.78 16.3791 17.78C15.2992 17.78 14.2601 17.9267 13.2624 18.2198L12.8902 18.3366V31.6127H8.86002V16.1874L8.98303 16.1272C10.0225 15.6182 11.2829 15.2042 12.7684 14.8825L13.2601 14.782C14.5645 14.53 15.8195 14.4039 17.0265 14.4039ZM53.2495 17.6811C51.6594 17.6811 50.5424 18.1382 49.8726 19.0459C49.1878 19.9747 48.8405 21.355 48.8405 23.1887C48.8405 25.0224 49.1986 26.4126 49.9061 27.3635C50.5983 28.294 51.7046 28.7608 53.2495 28.7608C56.246 28.7608 57.7267 26.9384 57.7267 23.1887C57.7267 21.3139 57.3634 19.9251 56.6479 19.019C55.9446 18.1293 54.8181 17.6811 53.2495 17.6811ZM73.2528 17.747C70.1606 17.747 68.6383 19.4854 68.6383 23.0574C68.6383 24.849 68.9917 26.2409 69.6915 27.2363C70.3708 28.2067 71.5706 28.695 73.3209 28.695C74.3454 28.695 75.2006 28.5791 75.8874 28.3483C76.4704 28.1524 76.7596 27.9234 76.8037 27.6723L76.8098 27.6032V18.605L76.5551 18.4769C76.1237 18.2717 75.6575 18.1079 75.1567 17.9865C74.502 17.8269 73.8672 17.747 73.2528 17.747ZM92.5741 17.6172C91.4221 17.6172 90.5356 17.9038 89.8996 18.4737C89.3395 18.9756 88.9445 19.801 88.7224 20.9539L88.6775 21.2059H96.4436L96.4035 20.9481C96.2157 19.8528 95.8493 19.0442 95.3099 18.5163C94.698 17.9193 93.7899 17.6172 92.5741 17.6172ZM4.26864 9.03995V12.5796H0V9.03995H4.26864Z" fill="currentColor"></path></svg>