<svg width="102" height="35" viewBox="0 0 102 35" fill="none" xmlns="http://www.w3.org/2000/svg">
<mask id="mask0_2462_760" style="mask-type:luminance" maskUnits="userSpaceOnUse" x="0" y="0" width="102" height="35">
<path d="M101.175 0H0V34.2H101.175V0Z" fill="white"/>
</mask>
<g mask="url(#mask0_2462_760)">
<path d="M16.6197 8.42366H12.9054C11.8 8.42366 10.9062 7.52833 10.9062 6.4246V2.71012C10.9063 1.60724 11.8002 0.711914 12.9056 0.711914H16.6198C17.7236 0.711914 18.6181 1.60724 18.6181 2.71012V6.4246C18.6181 7.52833 17.7236 8.42366 16.6197 8.42366Z" fill="#406EB3"/>
<path d="M7.0129 16.7489H2.83445C1.59306 16.7489 0.585938 15.7446 0.585938 14.5011V10.3215C0.585938 9.08079 1.59306 8.07324 2.83445 8.07324H7.0129C8.25493 8.07324 9.26169 9.08079 9.26169 10.3215V14.5011C9.26169 15.7446 8.25493 16.7489 7.0129 16.7489Z" fill="#632678"/>
<path d="M6.61466 25.4219H4.0627C3.30403 25.4219 2.6875 24.8076 2.6875 24.0475V21.4965C2.6875 20.7354 3.30403 20.1201 4.0627 20.1201H6.61466C7.37368 20.1201 7.98921 20.7354 7.98921 21.4965V24.0475C7.98921 24.8076 7.37368 25.4219 6.61466 25.4219Z" fill="#982881"/>
<path d="M13.4698 33.4866H10.4523C9.55532 33.4866 8.82812 32.7612 8.82812 31.8628V28.8448C8.82812 27.9464 9.55522 27.2207 10.4523 27.2207H13.4698C14.3668 27.2207 15.0939 27.9463 15.0939 28.8448V31.8628C15.0939 32.7612 14.3668 33.4866 13.4698 33.4866Z" fill="#BA2F7D"/>
<path d="M24.5275 9.94331H22.4368C21.8156 9.94331 21.3125 9.43871 21.3125 8.81949V6.73129C21.3125 6.11006 21.8156 5.60547 22.4368 5.60547H24.5275C25.1482 5.60547 25.6504 6.11006 25.6504 6.73129V8.81949C25.6504 9.43861 25.1483 9.94331 24.5275 9.94331Z" fill="#BA2F7D"/>
<path d="M70.2778 11.3387C70.9423 11.3387 71.4803 10.8007 71.4803 10.1345C71.4803 9.46931 70.9423 8.92871 70.2778 8.92871C69.613 8.92871 69.0703 9.46931 69.0703 10.1345C69.0703 10.8008 69.6129 11.3387 70.2778 11.3387Z" fill="#26478D"/>
<path d="M26.299 24.1907C26.1126 24.4703 25.8098 24.6098 25.4836 24.6098C25.2977 24.6098 25.0878 24.5633 24.9248 24.4703C24.6688 24.3069 24.4821 23.9579 24.4821 23.6085C24.4821 23.4451 24.5289 23.282 24.622 23.1426L27.4172 18.741L24.622 14.3392C24.529 14.1995 24.4821 14.0131 24.4821 13.8498C24.4821 13.524 24.6455 13.1746 24.9483 13.0112C25.1111 12.9182 25.2745 12.8717 25.4604 12.8717C25.7865 12.8717 26.1126 13.0112 26.299 13.2912L28.5815 16.9009L30.8869 13.2912C31.0735 13.0112 31.3997 12.8717 31.7258 12.8717C31.9121 12.8717 32.0752 12.9182 32.2379 13.0112C32.5407 13.1746 32.7035 13.524 32.7035 13.8498C32.7035 14.0131 32.657 14.1995 32.564 14.3392L29.7691 18.741L32.564 23.1426C32.657 23.282 32.7035 23.4451 32.7035 23.6085C32.7035 23.9579 32.5175 24.3069 32.2611 24.4703C32.0984 24.5633 31.8885 24.6098 31.7022 24.6098C31.3765 24.6098 31.0735 24.4703 30.8869 24.1907L28.5815 20.604L26.299 24.1907ZM36.2631 14.2459C37.3112 13.2912 38.7319 12.709 40.2692 12.709C43.6234 12.709 46.3018 15.3875 46.3018 18.741C46.3018 22.0487 43.6234 24.7267 40.2692 24.7267C38.7319 24.7267 37.3112 24.1442 36.2631 23.1894V28.3366C36.2631 28.849 35.7975 29.2913 35.2622 29.2913C34.7727 29.2913 34.2839 28.849 34.2839 28.3366V13.7568C34.2839 13.2447 34.7727 12.802 35.2622 12.802C35.7975 12.802 36.2631 13.2446 36.2631 13.7568V14.2459ZM40.2692 14.7123C38.0333 14.7123 36.2631 16.4817 36.2631 18.741C36.2631 20.977 38.0332 22.7467 40.2692 22.7467C42.5288 22.7467 44.2982 20.977 44.2982 18.741C44.2982 16.4817 42.5288 14.7123 40.2692 14.7123ZM63.3532 17.6464V23.6783C63.3532 24.1907 62.8637 24.6331 62.3748 24.6331C61.8388 24.6331 61.3732 24.1907 61.3732 23.6783V13.7568C61.3732 13.2443 61.8388 12.802 62.3748 12.802C62.8411 12.802 63.3292 13.2211 63.3532 13.7103C64.1681 13.0816 65.2162 12.7319 66.3573 12.709C66.9863 12.709 67.4515 13.1978 67.4515 13.687C67.4515 14.2223 66.963 14.7117 66.3573 14.7117C64.7971 14.7582 63.3532 15.3174 63.3532 17.6464ZM70.2926 12.802C69.7573 12.802 69.2917 13.2443 69.2917 13.7568V23.6783C69.2917 24.1907 69.7573 24.6331 70.2926 24.6331C70.7821 24.6331 71.271 24.1907 71.271 23.6783V13.7568C71.271 13.2443 70.7821 12.802 70.2926 12.802ZM82.9401 13.7568C82.9401 13.2443 83.4051 12.802 83.9411 12.802C84.4303 12.802 84.9194 13.2443 84.9194 13.7568V23.6783C84.9194 24.1907 84.4302 24.6331 83.9411 24.6331C83.4051 24.6331 82.9401 24.1907 82.9401 23.6783V23.1891C81.8688 24.1439 80.4707 24.7261 78.9331 24.7261C75.5795 24.7261 72.9012 22.0484 72.9012 18.6945C72.9012 15.3875 75.5795 12.709 78.9331 12.709C80.4707 12.709 81.8688 13.2912 82.9401 14.2463V13.7568ZM78.9331 22.7234C81.1692 22.7234 82.9402 20.9534 82.9402 18.6945C82.9402 16.4585 81.1692 14.6887 78.9331 14.6887C76.6742 14.6887 74.9048 16.4584 74.9048 18.6945C74.9048 20.9535 76.6742 22.7234 78.9331 22.7234ZM95.0038 17.7626C95.0038 16.1095 93.5599 14.6651 91.906 14.6651C90.299 14.6651 88.8082 15.3174 88.8082 17.6464V23.6783C88.8082 24.1907 88.3194 24.6331 87.8299 24.6331C87.2939 24.6331 86.8289 24.1907 86.8289 23.6783V13.7568C86.8289 13.2443 87.2938 12.802 87.8299 12.802C88.2958 12.802 88.785 13.2211 88.8082 13.7103C89.6471 13.0577 90.7184 12.709 91.8821 12.709C94.584 12.709 96.9831 14.8286 96.9831 17.483V23.6782C96.9831 24.1906 96.4949 24.633 96.0054 24.633C95.4694 24.633 95.0038 24.1906 95.0038 23.6782V17.7626ZM23.9315 18.3687C23.885 15.3174 21.1605 12.709 17.9463 12.709C14.5921 12.709 11.9141 15.3875 11.9141 18.6945C11.9141 22.0483 14.5921 24.726 17.9463 24.726C19.5531 24.726 21.0442 24.0974 22.1152 23.0263C22.3248 22.84 22.4646 22.5604 22.4646 22.2808C22.4646 21.7455 21.9987 21.2795 21.463 21.2795C21.1605 21.2795 20.8808 21.4658 20.6713 21.6757C19.9955 22.3973 18.9943 22.7234 17.9463 22.7234C15.9437 22.7234 14.3144 21.3509 13.9638 19.4418H22.9538C22.9604 19.4418 22.9664 19.4395 22.973 19.4395H23.0002C23.0168 19.4379 23.0334 19.4322 23.0504 19.4296C23.0849 19.4246 23.1191 19.4196 23.1523 19.4096C23.5768 19.2955 23.9315 18.8894 23.9315 18.3687ZM17.9463 14.6888C19.7524 14.6888 21.2528 15.8478 21.7648 17.4628H14.1039C14.616 15.8478 16.1184 14.6888 17.9463 14.6888ZM59.6975 18.3687C59.6504 15.3174 56.9255 12.709 53.7118 12.709C50.3577 12.709 47.6783 15.3875 47.6783 18.6945C47.6783 22.0483 50.3577 24.726 53.7118 24.726C55.3185 24.726 56.8093 24.0974 57.8803 23.0263C58.0902 22.84 58.2296 22.5604 58.2296 22.2808C58.2296 21.7455 57.764 21.2795 57.2287 21.2795C56.9255 21.2795 56.6455 21.4658 56.4364 21.6757C55.7609 22.3973 54.7593 22.7234 53.7118 22.7234C51.7093 22.7234 50.0794 21.3509 49.729 19.4418H58.7038C58.7098 19.4418 58.7165 19.4395 58.7224 19.4395H58.7652C58.7922 19.4373 58.8184 19.4289 58.845 19.4236C58.8586 19.4206 58.8725 19.4196 58.8858 19.4156C59.3242 19.3143 59.6975 18.902 59.6975 18.3687ZM53.7118 14.6888C55.5173 14.6888 57.0184 15.8478 57.5308 17.4628H49.8687C50.3808 15.8478 51.8833 14.6888 53.7118 14.6888ZM99.4813 22.494C98.8763 22.494 98.3652 22.9896 98.3652 23.576C98.3652 24.1623 98.8764 24.6579 99.4813 24.6579C100.098 24.6579 100.6 24.1725 100.6 23.576C100.6 22.9794 100.098 22.494 99.4813 22.494ZM100.404 23.576C100.404 24.058 99.9903 24.45 99.4813 24.45C98.9831 24.45 98.578 24.0579 98.578 23.576C98.578 23.0941 98.9831 22.7021 99.4813 22.7021C99.9903 22.7021 100.404 23.0942 100.404 23.576ZM99.6633 23.6775C99.7843 23.6039 99.8563 23.4738 99.8563 23.3247C99.8563 23.0987 99.6843 22.9284 99.4553 22.9284H99.2945C99.2067 22.9284 99.1428 22.9974 99.1428 23.0924V24.1087C99.1428 24.1675 99.193 24.2155 99.2549 24.2155C99.3171 24.2155 99.3639 24.1696 99.3639 24.1087V23.7318H99.4473L99.6463 24.1561C99.6633 24.1923 99.7003 24.2156 99.7413 24.2156C99.7583 24.2156 99.7773 24.2112 99.7913 24.2048C99.8303 24.1895 99.8563 24.1528 99.8563 24.1115C99.8563 24.0986 99.8563 24.084 99.8473 24.0661L99.6633 23.6775ZM99.6343 23.3247C99.6343 23.3247 99.6333 23.5157 99.4583 23.5157H99.364V23.1418H99.4583C99.6333 23.1418 99.6343 23.3172 99.6343 23.3247Z" fill="#26478D"/>
</g>
</svg>
