<svg width="78" height="32" viewBox="0 0 78 32" fill="none" xmlns="http://www.w3.org/2000/svg">
<path d="M71.9829 21.8913C71.7748 21.8913 71.6314 21.7503 71.6314 21.5474V11.4711H68.1295C67.9213 11.4711 67.7777 11.3306 67.7777 11.1276V9.73756C67.7777 9.53406 67.9213 9.39326 68.1295 9.39326H77.451C77.659 9.39326 77.8022 9.53416 77.8022 9.73756V11.1275C77.8022 11.3304 77.659 11.4711 77.451 11.4711H73.9493V21.5473C73.9493 21.7503 73.8053 21.8913 73.5978 21.8913H71.9829ZM45.1576 16.8606L43.3193 11.7057L41.4645 16.8606H45.1576ZM49.2347 21.4842C49.3151 21.6878 49.1869 21.8913 48.963 21.8913H47.3005C47.0606 21.8913 46.9165 21.7823 46.8363 21.5626L45.8934 18.9077H40.7296L39.7851 21.5626C39.7057 21.7824 39.5613 21.8913 39.322 21.8913H37.7556C37.5475 21.8913 37.4033 21.6877 37.4834 21.4842L41.8161 9.70636C41.8963 9.48696 42.0401 9.39375 42.2795 9.39375H44.422C44.662 9.39375 44.8219 9.48696 44.9018 9.70636L49.2347 21.4842ZM61.6541 20.2038C62.6769 20.2038 63.3647 19.7203 63.9245 18.892L61.3348 16.1734C60.343 16.7206 59.7032 17.2666 59.7032 18.3605C59.7033 19.4386 60.5982 20.2038 61.6541 20.2038ZM62.3734 11.0492C61.5423 11.0492 61.0627 11.5652 61.0627 12.2524C61.0627 12.7835 61.3499 13.2523 62.0057 13.9398C63.1407 13.2989 63.6206 12.9085 63.6206 12.2214C63.6206 11.5803 63.2051 11.0492 62.3734 11.0492ZM69.4569 21.4538C69.6645 21.6727 69.5368 21.8913 69.2803 21.8913H67.2498C66.9781 21.8913 66.8342 21.8285 66.6584 21.6252L65.4434 20.3135C64.6281 21.3759 63.492 22.1724 61.6058 22.1724C59.2716 22.1724 57.4324 20.7978 57.4324 18.4393C57.4324 16.6265 58.4242 15.6577 59.9274 14.8456C59.1913 14.0177 58.8562 13.1428 58.8562 12.3777C58.8562 10.44 60.247 9.1123 62.3412 9.1123C64.4837 9.1123 65.7949 10.3469 65.7949 12.1744C65.7949 13.7366 64.644 14.6106 63.4285 15.2672L65.2195 17.1581L66.2266 15.4391C66.3544 15.2363 66.4983 15.1579 66.7538 15.1579H68.3043C68.5606 15.1579 68.7045 15.3302 68.5451 15.5956L66.754 18.5946L69.4569 21.4538ZM53.5009 21.8913C53.7087 21.8913 53.8533 21.7503 53.8533 21.5474V11.4711H57.3542C57.5621 11.4711 57.7058 11.3306 57.7058 11.1276V9.73756C57.7058 9.53406 57.5621 9.39326 57.3542 9.39326H48.0327C47.8246 9.39326 47.681 9.53416 47.681 9.73756V11.1275C47.681 11.3304 47.8246 11.4711 48.0327 11.4711H51.5336V21.5473C51.5336 21.7503 51.678 21.8913 51.8856 21.8913H53.5009Z" fill="black"/>
<path d="M6.18596 27.969C8.89744 30.0206 12.3008 31.2533 15.9933 31.2533C20.0341 31.2533 23.7179 29.7869 26.5293 27.3797C26.5634 27.3503 26.5466 27.3308 26.513 27.3503C25.2514 28.1739 21.6558 29.9716 15.9934 29.9716C11.0726 29.9716 7.96294 28.8985 6.2068 27.9403C6.1732 27.9241 6.16075 27.9487 6.18596 27.969ZM17.0789 28.7678C21.0147 28.7678 25.3395 27.7191 27.9262 25.6432C28.634 25.0776 29.3083 24.3248 29.9121 23.3131C30.2597 22.731 30.5997 22.0394 30.8766 21.3596C30.8889 21.3265 30.868 21.3104 30.8425 21.3476C28.4371 24.8077 21.4716 26.9658 14.2793 26.9658C9.19559 26.9658 3.72556 25.3768 1.584 22.3426C1.56292 22.3145 1.54184 22.3265 1.55467 22.3588C3.54969 26.5035 9.60209 28.7678 17.0789 28.7678ZM12.7788 21.8918C4.59324 21.8918 0.733584 18.1653 0.033448 15.6223C0.024813 15.5855 0 15.5936 0 15.6266C0 16.4827 0.087663 17.5876 0.238487 18.3209C0.310438 18.6778 0.607652 19.238 1.0434 19.6846C3.0255 21.7041 7.96714 24.5338 16.5252 24.5338C28.1854 24.5338 30.8514 20.7372 31.3958 19.4887C31.7851 18.5958 31.9868 16.9822 31.9868 15.6267C31.9868 15.2987 31.9784 15.0367 31.9658 14.7795C31.9658 14.7378 31.941 14.7343 31.9325 14.775C31.3498 17.83 21.3876 21.8918 12.7788 21.8918ZM1.54184 8.92274C1.0728 9.83265 0.552892 11.3677 0.398334 12.1621C0.330584 12.5025 0.359442 12.666 0.481563 12.92C1.46265 14.9547 6.42522 18.2102 18.0009 18.2102C25.0629 18.2102 30.5489 16.5143 31.4377 13.4196C31.6013 12.8499 31.6101 12.2484 31.3999 11.4379C31.165 10.5322 30.725 9.47605 30.3527 8.73441C30.3404 8.71023 30.3187 8.71381 30.3231 8.7424C30.4614 12.8015 18.8811 15.4175 13.0382 15.4175C6.70929 15.4175 1.42921 12.9527 1.42921 9.84035C1.42921 9.54135 1.49252 9.24225 1.57155 8.93095C1.57949 8.90252 1.55459 8.8978 1.54184 8.92274ZM26.5552 3.93911C26.6224 4.04206 26.656 4.15192 26.656 4.2998C26.656 6.03606 21.2195 9.10757 12.5655 9.10757C6.2068 9.10757 5.01631 6.80184 5.01631 5.3355C5.01631 4.81134 5.22197 4.27502 5.67491 3.73033C5.69965 3.69794 5.67865 3.68547 5.6501 3.70957C4.82403 4.39385 4.06501 5.16382 3.39917 5.995C3.08104 6.38808 2.88354 6.7363 2.88354 6.94494C2.88354 9.98365 10.6787 12.187 17.9675 12.187C25.7338 12.187 29.1999 9.70875 29.1999 7.53091C29.1999 6.75258 28.8899 6.29821 28.097 5.41731C27.5823 4.84426 27.0954 4.37766 26.5801 3.91835C26.5552 3.89828 26.5379 3.91463 26.5552 3.93911ZM24.1743 2.20324C21.7775 0.798943 18.9941 0 15.9934 0C12.9718 0 10.1046 0.826843 7.69917 2.26832C6.97764 2.70238 6.57153 3.05023 6.57153 3.49737C6.57153 4.81545 9.72294 6.23267 15.314 6.23267C20.847 6.23267 25.1385 4.68034 25.1385 3.18609C25.1385 2.82943 24.8196 2.5799 24.1743 2.20324Z" fill="#00A8E0"/>
</svg>
