<svg width="84" height="27" viewBox="0 0 84 27" fill="none" xmlns="http://www.w3.org/2000/svg">
<path fill-rule="evenodd" clip-rule="evenodd" d="M76.7905 7.74379C76.8446 7.743 83.4951 7.65698 83.6677 13.5568C83.6677 13.5568 83.8663 18.8185 76.896 18.86C76.8507 18.861 73.9382 18.9226 71.6417 18.0868C71.5226 22.99 77.4958 22.7034 77.548 22.7001C79.7562 22.7001 81.8451 21.8712 83.5877 20.3107V24.6608C81.9249 25.9175 79.5434 26.6358 77.0426 26.6358C71.1633 26.6357 67.3595 22.9896 67.3594 17.3414C67.3594 11.6931 71.2435 7.74379 76.7905 7.74379ZM76.5772 11.3062C74.4223 11.3063 72.9054 12.3148 72.1738 14.2344L72.0016 14.7587L72.4671 14.8698C72.9461 14.9941 74.0106 15.1864 75.7396 15.1864C77.4953 15.1864 79.3707 15.0349 79.3709 13.3091C79.3709 12.08 78.3464 11.3062 76.5772 11.3062Z" fill="#1EC677"/>
<path d="M8.95226 7.74268C10.1627 7.74268 11.1871 7.96384 12.1848 8.18479C13.1292 8.39195 14.0342 8.58581 15.0319 8.58581C15.3243 8.58578 15.6036 8.55787 15.8961 8.53027V12.7015C15.5503 12.7567 15.2044 12.7837 14.8586 12.7837C13.7545 12.7837 12.8227 12.494 11.9315 12.2316C11.067 11.983 10.2553 11.7339 9.31106 11.7339C6.42489 11.7341 4.40361 13.8885 4.40337 16.9815C4.40337 20.2405 6.62421 22.5055 9.78983 22.5057C11.7718 22.5057 14.0072 21.608 15.9094 20.0474V24.4253C14.6191 25.4334 12.4505 26.6347 9.39104 26.6347C3.85751 26.6346 1.5e-05 22.7546 0 17.1893C0 14.3858 0.931211 11.9828 2.67379 10.2565C4.30993 8.627 6.54464 7.7427 8.95226 7.74268Z" fill="#1EC677"/>
<path d="M22.6225 9.27995C24.791 8.07844 33.8096 4.54382 33.8231 15.2596V26.3491H29.4997V15.2596C29.5019 15.2102 29.7345 9.57265 22.6225 13.1612V26.3491H18.3125V0H22.6225V9.27995Z" fill="#1EC677"/>
<path d="M40.7328 26.348H36.3828V8.05029H40.7328V26.348Z" fill="#1EC677"/>
<path fill-rule="evenodd" clip-rule="evenodd" d="M59.6769 7.74391C59.6769 7.74391 65.663 7.27475 65.6765 14.5522V26.3327H61.3265V15.2154C61.3264 11.9565 59.2118 11.8873 58.8126 11.984C58.8126 11.984 58.0547 12.0258 57.363 12.7715C57.3876 12.8052 58.7471 14.6705 58.8526 17.0105C58.8526 17.0105 59.1582 23.129 54.4359 23.129C49.7139 23.1288 50.0203 17.0105 50.0203 17.0105C50.1263 14.6617 51.4953 12.7915 51.51 12.7715C50.8182 12.0258 50.0592 11.984 50.0592 11.984C49.6456 11.8875 47.5454 11.9576 47.5454 15.2154V26.3327H43.1953V14.5522C43.1955 7.29706 49.1584 7.74112 49.195 7.74391C50.7513 7.74391 52.6401 8.32479 54.4359 10.341C56.2316 8.32494 58.1073 7.74399 59.6769 7.74391ZM54.4226 13.9446C54.4093 13.9722 53.1463 15.423 53.1729 17.4393C53.1863 18.5991 53.4918 19.814 54.4226 19.8143C55.3536 19.8143 55.6733 18.5992 55.6734 17.4393C55.7 15.423 54.4492 13.9722 54.4226 13.9446Z" fill="#1EC677"/>
<path d="M38.5769 0.123535C40.0002 0.123555 41.184 1.36681 41.184 2.83066C41.1839 4.34967 40.0134 5.57886 38.5769 5.57887C37.1137 5.57887 35.9298 4.33587 35.9297 2.83066C35.9297 1.33918 37.1269 0.123535 38.5769 0.123535Z" fill="#1EC677"/>
</svg>
