<svg width="112" height="21" viewBox="0 0 112 21" fill="none" xmlns="http://www.w3.org/2000/svg">
<mask id="mask0_2462_745" style="mask-type:luminance" maskUnits="userSpaceOnUse" x="0" y="0" width="112" height="21">
<path d="M111.51 0H0V20.1667H111.51V0Z" fill="white"/>
</mask>
<g mask="url(#mask0_2462_745)">
<path d="M26.4822 16.6046H28.6533C28.7438 16.6046 28.8229 16.5243 28.8229 16.4327V11.3102H32.713C32.7808 11.3102 32.8486 11.2644 32.8712 11.1956L33.561 9.27037C33.595 9.1787 33.5498 9.08702 33.4593 9.05264C33.4366 9.04118 33.4253 9.04118 33.4027 9.04118H28.8229V5.8325H34.6693C34.7371 5.8325 34.805 5.78666 34.8275 5.71789L35.5286 3.79268C35.5625 3.70101 35.5173 3.60933 35.4268 3.57494C35.4043 3.56348 35.3929 3.56348 35.3704 3.56348H26.4822C26.3917 3.56348 26.3125 3.64371 26.3125 3.73538V16.4327C26.3125 16.5358 26.3917 16.6046 26.4822 16.6046Z" fill="#0078FF"/>
<path d="M40.3888 3.67809L35.8316 16.3754C35.7977 16.467 35.8429 16.5587 35.9334 16.5931C35.9561 16.6046 35.9673 16.6046 35.99 16.6046H38.2516C38.3194 16.6046 38.3872 16.5587 38.4099 16.49L39.1449 14.3012H43.7248L44.4484 16.49C44.471 16.5587 44.5389 16.6046 44.6068 16.6046H46.857C46.9475 16.6046 47.0266 16.5243 47.0266 16.4327C47.0266 16.4097 47.0266 16.3983 47.0154 16.3754L42.4469 3.67809C42.4242 3.60932 42.3564 3.56348 42.2885 3.56348H40.5585C40.4792 3.56348 40.4227 3.60932 40.3888 3.67809ZM39.8574 12.1582L41.4857 7.41392L43.0575 12.1582H39.8574Z" fill="#0078FF"/>
<path d="M57.3034 11.5509L52.2487 3.64371C52.2148 3.59786 52.1582 3.56348 52.1016 3.56348H50.1228C50.0323 3.56348 49.9531 3.64371 49.9531 3.73538V16.4327C49.9531 16.5243 50.0323 16.6046 50.1228 16.6046H52.2939C52.3844 16.6046 52.4635 16.5243 52.4635 16.4327V8.59427L57.5183 16.5243C57.5522 16.5702 57.6087 16.6046 57.6652 16.6046H59.6442C59.7346 16.6046 59.8138 16.5243 59.8138 16.4327V3.73538C59.8138 3.64371 59.7346 3.56348 59.6442 3.56348H57.4731C57.3826 3.56348 57.3034 3.64371 57.3034 3.73538V11.5509Z" fill="#0078FF"/>
<path d="M84.0474 12.0436C84.0474 13.5448 83.1653 14.4501 81.8084 14.4501C80.4514 14.4501 79.5807 13.5563 79.5807 12.0436V3.73538C79.5807 3.64371 79.5015 3.56348 79.4111 3.56348H77.2398C77.1494 3.56348 77.0703 3.64371 77.0703 3.73538V12.1353C77.0703 14.9086 79.1736 16.7192 81.8084 16.7192C84.4431 16.7192 86.5465 14.9086 86.5465 12.1353V3.73538C86.5465 3.64371 86.4673 3.56348 86.3769 3.56348H84.2283C84.1378 3.56348 84.0587 3.64371 84.0587 3.73538L84.0474 12.0436Z" fill="#0078FF"/>
<path d="M99.1323 5.71789L99.822 3.79268C99.856 3.70101 99.811 3.60933 99.7202 3.57494C99.6977 3.56348 99.6864 3.56348 99.6638 3.56348H90.7869C90.6965 3.56348 90.6172 3.64371 90.6172 3.73538V16.4327C90.6172 16.5243 90.6965 16.6046 90.7869 16.6046H99.6638C99.754 16.6046 99.833 16.5243 99.833 16.4327C99.833 16.4097 99.833 16.3983 99.822 16.3754L99.1323 14.4501C99.1097 14.3814 99.0418 14.3355 98.974 14.3355H93.1276V11.1612H97.8318C97.9223 11.1612 98.0015 11.081 98.0015 10.9893V9.0641C98.0015 8.97243 97.9223 8.89221 97.8318 8.89221H93.1276V5.8325H98.974C99.0418 5.8325 99.1097 5.78666 99.1323 5.71789Z" fill="#0078FF"/>
<path d="M110.665 14.3355H105.35V3.73538C105.35 3.64371 105.271 3.56348 105.18 3.56348C105.18 3.56348 105.18 3.56348 105.169 3.56348H102.998C102.907 3.56348 102.828 3.64371 102.828 3.73538V16.4327C102.828 16.5243 102.907 16.6046 102.998 16.6046H111.343C111.434 16.6046 111.513 16.5243 111.513 16.4327C111.513 16.4097 111.513 16.3983 111.502 16.3754L110.812 14.4501C110.801 14.3814 110.733 14.3355 110.665 14.3355Z" fill="#0078FF"/>
<path d="M72.1299 4.81258C71.2818 3.95311 70.0718 3.56348 68.7261 3.56348H63.6149C63.5244 3.56348 63.4453 3.64371 63.4453 3.73538C63.4453 3.74684 63.4453 3.7583 63.4453 3.76976L63.8185 5.69497C63.841 5.7752 63.8976 5.8325 63.9767 5.8325H68.4661C69.3368 5.8325 69.9135 6.10752 70.3433 6.63467C70.8181 7.21911 70.886 8.0442 70.886 10.0267C70.886 12.0092 70.8181 12.9375 70.3433 13.5219C69.9135 14.049 69.3255 14.3241 68.4661 14.3241H66.6002V7.55143C66.6002 7.45976 66.5211 7.37954 66.4306 7.37954H64.2594C64.169 7.37954 64.0898 7.45976 64.0898 7.55143V16.4441C64.0898 16.5358 64.169 16.616 64.2594 16.616H68.7375C70.0718 16.616 71.2931 16.2264 72.1412 15.367C73.5887 13.9001 73.4417 11.9978 73.4417 10.0382C73.4303 8.06712 73.5774 6.26795 72.1299 4.81258Z" fill="#0078FF"/>
<path d="M8.23288 3.33476C8.61736 2.49821 9.05837 1.70748 9.56724 0.974066C9.77078 0.676116 9.98568 0.401087 10.2005 0.137516C10.2344 0.080217 10.2005 0 10.1327 0C10.0761 0 10.0196 0 9.96298 0C7.69009 0 5.49631 0.389628 3.46085 1.10013C2.40919 1.46684 1.39146 1.92522 0.418967 2.46382C0.147572 2.6128 -0.0107405 2.89929 0.000567508 3.20869C0.0231835 4.35466 0.147573 5.46625 0.362428 6.55491C0.554666 7.57482 0.826062 8.5718 1.1653 9.53439C1.5724 10.6918 2.08126 11.8034 2.6919 12.8462C3.80009 14.7829 5.21361 16.5133 6.87591 17.9687C7.15861 18.2209 7.45261 18.4614 7.74663 18.6906C7.81448 18.7365 7.90494 18.6677 7.87103 18.5989C7.74663 18.2896 7.63355 17.9687 7.53177 17.6478C7.02291 16.1008 6.70628 14.4391 6.60451 12.7202C6.60451 12.64 6.57058 12.5712 6.53667 12.5139C6.11827 11.9294 5.74509 11.3336 5.40585 10.6918C5.71117 10.5199 6.03911 10.371 6.36704 10.2449C6.51404 10.1876 6.60451 10.0501 6.61581 9.88969C6.69497 8.74369 6.8646 7.6092 7.136 6.53199C7.1473 6.47469 7.10207 6.41739 7.04553 6.42885C6.01648 6.6695 5.02138 7.02475 4.10542 7.4946C3.84533 6.60074 3.65309 5.68398 3.54001 4.74429C4.91961 4.14839 6.40097 3.7473 7.93887 3.55249C8.05194 3.55249 8.16503 3.46081 8.23288 3.33476Z" fill="#0078FF"/>
<path d="M19.5005 2.46328C18.5281 1.92467 17.5216 1.47774 16.4585 1.09958C15.0451 0.606816 13.5749 0.274482 12.0371 0.114047C11.9127 0.102588 11.7996 0.148426 11.7092 0.228643C10.8837 1.08812 10.1487 2.13094 9.54935 3.32275C9.52673 3.38004 9.56066 3.43734 9.6172 3.43734C9.73029 3.43734 9.83205 3.43734 9.94515 3.43734C12.2294 3.43734 14.4117 3.90719 16.4021 4.7552C16.2889 5.69489 16.0967 6.62312 15.8366 7.50551C15.5087 8.61709 15.0676 9.68279 14.5249 10.6913C13.394 12.7999 11.8222 14.6449 9.94515 16.0773C9.28926 15.573 8.67863 15.0345 8.11322 14.4386C8.05669 14.3813 7.96622 14.4271 7.97753 14.5073C8.12453 15.3783 8.31677 16.2263 8.56555 17.0285C8.9161 18.1515 9.36842 19.1829 9.91125 20.1225C9.93385 20.1569 9.97905 20.1798 10.0242 20.1569C11.0985 19.5152 12.1164 18.7818 13.0549 17.9567C14.7059 16.5013 16.1307 14.7709 17.2389 12.8343C17.8382 11.78 18.347 10.6798 18.7654 9.52239C19.1047 8.55979 19.3761 7.56281 19.5683 6.5429C19.7718 5.45424 19.8964 4.33119 19.9303 3.19669C19.9303 2.88728 19.7719 2.60079 19.5005 2.46328Z" fill="#0078FF"/>
</g>
</svg>
