<svg width="296" height="296" viewBox="0 0 296 296" fill="none" xmlns="http://www.w3.org/2000/svg">
<mask id="mask0_2378_4573" style="mask-type:alpha" maskUnits="userSpaceOnUse" x="8" y="8" width="280" height="281">
<circle cx="148" cy="148.282" r="140" fill="#E9E9EB"/>
</mask>
<g mask="url(#mask0_2378_4573)">
<g clip-path="url(#clip0_2378_4573)">
<path d="M8.13684 -18.8149H288.137V325.54H8.13684V-18.8149Z" fill="#E5F0FF"/>
<path d="M294.442 275.646C307.657 299.292 315.264 353.826 315.264 353.826H-17.8907C-17.8907 353.826 -10.2809 299.286 2.93141 275.646C16.1438 252.006 96.6648 230.08 96.6648 230.08C103.797 242.965 124.732 254.718 146.162 255.243C169.417 255.813 193.254 244.057 200.668 230.072C200.668 230.072 281.227 252 294.442 275.646Z" fill="white"/>
<path d="M109.528 211.281V211.807C109.382 222.952 100.001 231.333 81.3822 236.949C103.816 253.246 126.252 266.284 148.686 266.284C171.121 266.284 193.556 253.246 215.99 236.949C197.498 231.326 188.117 222.933 187.845 211.77C187.845 207.533 187.86 166.256 187.879 162.019C189.217 162.208 189.103 162.088 187.879 161.748C187.916 147.791 187.976 166.062 188.059 146.987C188.142 127.913 108.232 110.848 109.405 163.223C109.421 168.563 109.453 205.233 109.528 211.281Z" fill="url(#paint0_linear_2378_4573)"/>
<path d="M108.471 185.69C141.317 182.278 172.242 196.499 172.242 196.499C172.242 196.499 166.111 228.702 108.471 219.342V185.69Z" fill="#CDCDCD"/>
<path d="M294.442 275.646C307.657 299.292 315.264 353.826 315.264 353.826H-17.8907C-17.8907 353.826 -10.2809 299.286 2.93141 275.646C16.1438 252.006 96.6648 230.08 96.6648 230.08C96.6648 244.41 124.441 265.074 146.162 265.442C176.449 265.442 200.668 244.41 200.668 230.072C200.668 230.072 281.227 252 294.442 275.646Z" fill="#007AFF"/>
<path d="M81.544 118.309C85.9233 111.004 91.3861 116.028 93.5701 119.453L96.6207 151.934C96.5138 154.76 94.8203 156.556 90.4033 157.114C84.882 157.813 81.2348 142.776 79.9627 137.163C78.6906 131.55 76.0698 127.44 81.544 118.309Z" fill="url(#paint1_linear_2378_4573)"/>
<path d="M213.754 120.171C209.444 112.825 203.934 117.796 201.718 121.2L198.36 153.651C198.44 156.479 200.117 158.29 204.528 158.891C210.043 159.641 213.832 144.64 215.157 139.039C216.482 133.439 219.142 129.354 213.754 120.171Z" fill="url(#paint2_linear_2378_4573)"/>
<path d="M209.404 125.874C209.404 172.848 175.398 210.928 148.856 210.928C119.826 210.928 88.3079 172.848 88.3079 125.874C88.3079 84.0223 91.6476 39.3021 148.856 39.3021C206.064 39.3021 209.404 83.0546 209.404 125.874Z" fill="url(#paint3_linear_2378_4573)"/>
</g>
</g>
<defs>
<linearGradient id="paint0_linear_2378_4573" x1="142.717" y1="166.408" x2="142.717" y2="231.227" gradientUnits="userSpaceOnUse">
<stop stop-color="#B1B1B1"/>
<stop offset="1" stop-color="white"/>
</linearGradient>
<linearGradient id="paint1_linear_2378_4573" x1="93.3551" y1="134.732" x2="82.8186" y2="136.681" gradientUnits="userSpaceOnUse">
<stop offset="0.171875" stop-color="#BDBDBD"/>
<stop offset="0.640625" stop-color="#E1E1E1"/>
<stop offset="1" stop-color="#DDDDDD"/>
</linearGradient>
<linearGradient id="paint2_linear_2378_4573" x1="201.788" y1="136.481" x2="212.306" y2="138.529" gradientUnits="userSpaceOnUse">
<stop offset="0.0416667" stop-color="#B5B5B5"/>
<stop offset="0.362488" stop-color="#E2E2E2"/>
<stop offset="1" stop-color="white"/>
</linearGradient>
<linearGradient id="paint3_linear_2378_4573" x1="95.7504" y1="124.313" x2="181.278" y2="124.636" gradientUnits="userSpaceOnUse">
<stop stop-color="#E0E0E0"/>
<stop offset="1" stop-color="white"/>
</linearGradient>
<clipPath id="clip0_2378_4573">
<rect width="366.471" height="366.471" fill="white" transform="translate(-34.5487 -19.5895)"/>
</clipPath>
</defs>
</svg>
